<svg width="200" height="48" viewBox="0 0 429 48" fill="none" xmlns="http://www.w3.org/2000/svg">
    <g clip-path="url(#clip0_1037_2)">
        <path d="M212.697 14.9899L214.365 17.891C215.485 19.8396 215.079 22.2436 213.528 23.7324L214.87 26.0659C215.083 26.4366 215.341 26.7618 215.63 27.0523C218.914 24.3713 219.877 19.6392 217.693 15.8435L216.01 12.9148L213.625 14.286C213.279 14.4865 212.973 14.7253 212.697 14.9899Z" fill="#501EE5"/>
        <path d="M188.955 21.6251L190.703 24.9085C191.666 26.5818 190.764 28.0412 189.715 29.5203L191.023 31.7941C191.266 32.2191 191.566 32.5907 191.905 32.907C194.635 30.1582 196.057 26.3831 194.032 22.8619L192.091 19.6284L190.488 20.5845C189.851 21.0451 189.481 21.2073 188.955 21.6251Z" fill="#501EE5"/>
        <path d="M239.879 10.0235L236.658 4.42269C234.231 0.202916 228.843 -1.25209 224.623 1.1741L211.424 8.76452C208.675 6.04698 204.36 5.36714 200.846 7.38882L186.746 15.496C183.987 12.7072 179.553 11.2344 176.037 13.2552L159.093 23.5587C154.873 25.9858 153.419 31.3745 155.845 35.5943L159.987 43.0359C162.414 47.2566 167.803 48.7098 172.023 46.2836L186.388 37.6035C185.982 37.1518 185.616 36.6537 185.301 36.1057L184.271 34.3139L169.977 42.953C167.683 44.2735 164.751 43.4832 163.432 41.1871L159.498 34.1126C158.179 31.8182 158.97 28.8868 161.265 27.5673L178.407 17.1497C180.009 16.2275 181.996 16.9314 183.461 17.9124C181.008 20.6692 180.461 24.7865 182.402 28.1607L185.622 33.7615C188.049 37.9822 193.437 39.4363 197.659 37.0092L210.684 29.5195C210.373 29.1426 210.084 28.7443 209.833 28.3068L208.621 26.1996L195.612 33.6804C193.316 35.0009 190.385 34.2097 189.067 31.9154L186.057 26.6807C184.738 24.3864 185.528 21.455 187.822 20.1363L203.216 11.2843C204.667 10.4512 206.368 10.4681 207.759 11.1675C204.872 13.9047 204.108 18.3508 206.18 21.9504L209.4 27.5495C211.827 31.7701 217.215 33.2251 221.437 30.798L236.632 22.06C240.851 19.632 242.306 14.2433 239.879 10.0235ZM234.783 18.6154L219.389 27.4666C217.094 28.7853 214.163 27.995 212.844 25.7006L209.833 20.4651C208.514 18.1708 209.305 15.2412 211.599 13.9216L226.993 5.06955C229.288 3.75087 232.219 4.5403 233.539 6.8364L236.549 12.0692C237.868 14.3636 237.077 17.2949 234.783 18.6154Z" fill="#501EE5"/>
    </g>
</svg>
