<svg width="429" height="48" viewBox="0 0 429 48" fill="none" xmlns="http://www.w3.org/2000/svg">
    <g clip-path="url(#clip0_1037_2)">
        <path d="M22.3519 36.4836H17.528V26.0626H4.8607V36.4836H0V10.7072H4.8607V21.5701H17.528V10.7072H22.3519V36.4836ZM44.7037 10.7072H49.5276V25.4734C49.5276 33.0959 44.851 36.9992 38.3701 36.9992C32.1837 36.9992 26.918 33.2432 26.918 25.4734V10.7072H31.7418V25.4734C31.7418 30.1132 34.3931 32.5803 38.4069 32.5803C42.4207 32.5803 44.7037 29.8922 44.7037 25.4734V10.7072ZM76.7402 36.4836V17.7773L68.3444 28.9716H67.387L59.1753 17.7405V36.4836H54.3146V10.7072H59.9118L67.9762 21.7911L76.0405 10.7072H81.6009V36.4836H76.7402ZM106.641 36.4468L104.468 31.5861H90.9908L88.7814 36.4468H83.5157L95.0782 10.6704H100.381L111.943 36.4468H106.641ZM102.517 27.0568L97.7295 16.0834L92.9425 27.0568H102.517ZM130.687 26.6518V10.6335H135.547V36.4468H132.528V36.4836L118.977 19.0661V36.4468H114.116V10.6704H118.056L130.687 26.6518Z" fill="#501EE5"/>
        <path d="M212.697 14.9899L214.365 17.891C215.485 19.8396 215.079 22.2436 213.528 23.7324L214.87 26.0659C215.083 26.4366 215.341 26.7618 215.63 27.0523C218.914 24.3713 219.877 19.6392 217.693 15.8435L216.01 12.9148L213.625 14.286C213.279 14.4865 212.973 14.7253 212.697 14.9899Z" fill="#501EE5"/>
        <path d="M188.955 21.6251L190.703 24.9085C191.666 26.5818 190.764 28.0412 189.715 29.5203L191.023 31.7941C191.266 32.2191 191.566 32.5907 191.905 32.907C194.635 30.1582 196.057 26.3831 194.032 22.8619L192.091 19.6284L190.488 20.5845C189.851 21.0451 189.481 21.2073 188.955 21.6251Z" fill="#501EE5"/>
        <path d="M239.879 10.0235L236.658 4.42269C234.231 0.202916 228.843 -1.25209 224.623 1.1741L211.424 8.76452C208.675 6.04698 204.36 5.36714 200.846 7.38882L186.746 15.496C183.987 12.7072 179.553 11.2344 176.037 13.2552L159.093 23.5587C154.873 25.9858 153.419 31.3745 155.845 35.5943L159.987 43.0359C162.414 47.2566 167.803 48.7098 172.023 46.2836L186.388 37.6035C185.982 37.1518 185.616 36.6537 185.301 36.1057L184.271 34.3139L169.977 42.953C167.683 44.2735 164.751 43.4832 163.432 41.1871L159.498 34.1126C158.179 31.8182 158.97 28.8868 161.265 27.5673L178.407 17.1497C180.009 16.2275 181.996 16.9314 183.461 17.9124C181.008 20.6692 180.461 24.7865 182.402 28.1607L185.622 33.7615C188.049 37.9822 193.437 39.4363 197.659 37.0092L210.684 29.5195C210.373 29.1426 210.084 28.7443 209.833 28.3068L208.621 26.1996L195.612 33.6804C193.316 35.0009 190.385 34.2097 189.067 31.9154L186.057 26.6807C184.738 24.3864 185.528 21.455 187.822 20.1363L203.216 11.2843C204.667 10.4512 206.368 10.4681 207.759 11.1675C204.872 13.9047 204.108 18.3508 206.18 21.9504L209.4 27.5495C211.827 31.7701 217.215 33.2251 221.437 30.798L236.632 22.06C240.851 19.632 242.306 14.2433 239.879 10.0235ZM234.783 18.6154L219.389 27.4666C217.094 28.7853 214.163 27.995 212.844 25.7006L209.833 20.4651C208.514 18.1708 209.305 15.2412 211.599 13.9216L226.993 5.06955C229.288 3.75087 232.219 4.5403 233.539 6.8364L236.549 12.0692C237.868 14.3636 237.077 17.2949 234.783 18.6154Z" fill="#501EE5"/>
        <path d="M280.542 15.5727L276.811 17.4914C275.959 16.0701 273.613 14.7199 270.913 14.7199C267.431 14.7199 265.761 16.1767 265.761 18.0244C265.761 20.192 268.319 20.796 271.304 21.1514C276.492 21.791 281.324 23.1412 281.324 29.0753C281.324 34.6184 276.421 36.9992 270.877 36.9992C265.796 36.9992 261.888 35.4357 260.04 30.8875L263.948 28.8621C265.05 31.5981 267.928 32.8062 270.948 32.8062C273.898 32.8062 276.669 31.7758 276.669 29.0753C276.669 26.7301 274.218 25.7707 270.913 25.4153C265.832 24.8113 261.141 23.461 261.141 17.8823C261.141 12.7655 266.187 10.6691 270.771 10.6335C274.644 10.6335 278.659 11.7351 280.542 15.5727ZM291.38 36.3596V15.7503H283.492V11.4863H303.959V15.7503H296.07V36.3596H291.38ZM318.492 10.9889C327.055 10.9889 331.319 17.5625 331.248 24.0651C331.177 30.4966 327.233 36.9281 318.492 36.9281C309.751 36.9281 305.7 30.6387 305.7 24.1006C305.7 17.5625 309.893 10.9889 318.492 10.9889ZM318.492 15.2529C312.629 15.2529 310.213 19.9788 310.319 24.1717C310.426 28.258 312.629 32.6286 318.492 32.6286C324.355 32.6286 326.558 28.2225 326.629 24.1362C326.7 19.9432 324.355 15.2529 318.492 15.2529ZM356.761 36.0398V36.3596H351.182L343.934 28.0448H339.421V36.3596H334.731V11.4508C338.675 11.4508 342.619 11.4863 346.563 11.4863C352.426 11.5219 355.517 15.4305 355.517 19.73C355.517 23.1412 353.954 26.5879 349.228 27.5473L356.761 36.0398ZM346.563 15.8569H339.421V23.8164H346.563C349.548 23.8164 350.827 21.8265 350.827 19.8366C350.827 17.8468 349.512 15.8569 346.563 15.8569ZM378.436 36.3596L376.34 31.6692H363.335L361.203 36.3596H356.121L367.279 11.4863H372.396L383.553 36.3596H378.436ZM374.457 27.2986L369.837 16.7097L365.218 27.2986H374.457ZM405.939 14.5777L403.025 17.5625C401.355 15.9635 398.868 15.0752 396.7 15.0752C391.37 15.0752 388.137 19.126 388.137 24.2428C388.137 28.3291 390.518 32.5575 396.7 32.5575C398.655 32.5575 400.36 32.1311 402.315 30.5677V26.1615H395.954V21.9686H406.614V32.4509C404.162 35.258 401.071 36.9281 396.7 36.9281C387.355 36.9281 383.553 30.7809 383.553 24.2428C383.553 17.2427 387.924 10.7757 396.7 10.7757C400.041 10.7757 403.381 12.0549 405.939 14.5777ZM429 31.7403V36.3596H410.381V11.4863H429V16.0346H415.036V21.7554H428.503V26.126H415.036V31.7403H429Z" fill="#501EE5"/>
    </g>
    <defs>
        <clipPath id="clip0_1037_2">
            <rect width="429" height="47.4581" fill="white"/>
        </clipPath>
    </defs>
</svg>
